<?xml version="1.0" standalone="no"?>
<!DOCTYPE svg PUBLIC "-//W3C//DTD SVG 20010904//EN"
 "http://www.w3.org/TR/2001/REC-SVG-20010904/DTD/svg10.dtd">
<svg version="1.0" xmlns="http://www.w3.org/2000/svg"
 width="16.000000pt" height="16.000000pt" viewBox="0 0 16.000000 16.000000"
 preserveAspectRatio="xMidYMid meet">
<metadata>
Created by potrace 1.11, written by Peter Selinger 2001-2013
</metadata>
<g transform="translate(0.000000,16.000000) scale(0.002222,-0.002222)"
fill="#000000" stroke="none">
<path d="M3418 5794 c-4 -3 -33 -8 -65 -10 -65 -5 -116 -11 -123 -14 -3 -1 -9
-2 -13 -1 -4 1 -17 -3 -27 -9 -15 -8 -20 -8 -20 1 0 8 -3 9 -14 0 -7 -6 -26
-13 -42 -15 -16 -3 -47 -10 -69 -16 -22 -6 -47 -12 -55 -14 -43 -11 -205 -68
-210 -74 -3 -4 -11 -8 -19 -10 -8 -2 -30 -10 -50 -19 -20 -9 -38 -17 -41 -17
-3 -1 -11 -5 -17 -9 -7 -5 -13 -5 -13 0 0 4 -4 3 -8 -3 -4 -7 -43 -31 -87 -54
-112 -58 -186 -106 -178 -113 3 -4 -3 -7 -15 -7 -11 0 -22 -3 -24 -8 -1 -4
-27 -25 -55 -46 -29 -21 -53 -42 -53 -47 0 -6 -4 -8 -9 -5 -5 3 -65 -49 -133
-117 -124 -122 -237 -247 -222 -247 4 0 -3 -9 -16 -20 -13 -11 -19 -20 -14
-20 5 0 -2 -7 -14 -16 -12 -8 -22 -22 -22 -30 0 -8 -5 -14 -12 -14 -6 0 -9 -3
-5 -6 6 -6 -1 -17 -36 -55 -9 -10 -14 -19 -11 -19 3 0 -4 -13 -15 -29 -12 -16
-21 -34 -21 -39 0 -6 -6 -17 -13 -24 -20 -21 -49 -78 -40 -78 4 0 4 -4 -2 -8
-16 -12 -45 -69 -38 -76 3 -3 1 -6 -5 -6 -7 0 -11 -3 -10 -8 2 -4 -4 -25 -14
-47 -25 -61 -31 -79 -30 -87 1 -5 -2 -8 -8 -8 -6 0 -9 -3 -8 -7 1 -5 -4 -26
-10 -48 -6 -22 -12 -44 -13 -50 0 -5 -5 -16 -11 -22 -6 -7 -7 -13 -3 -13 4 0
2 -7 -5 -15 -7 -9 -10 -18 -7 -22 4 -3 2 -13 -3 -23 -5 -9 -12 -31 -15 -49 -9
-55 -15 -85 -28 -148 -10 -44 -10 -63 -3 -63 7 0 7 -3 1 -8 -13 -10 -15 -28
-21 -245 -4 -145 -2 -187 7 -181 8 5 9 3 4 -7 -9 -14 -7 -87 2 -102 3 -4 7
-37 9 -73 2 -36 6 -69 9 -75 7 -10 10 -24 19 -84 4 -20 9 -41 12 -46 3 -5 7
-18 10 -29 2 -11 6 -29 8 -40 3 -11 7 -24 10 -28 3 -5 7 -19 10 -33 8 -37 47
-141 63 -166 8 -12 12 -26 9 -31 -3 -5 3 -21 14 -35 11 -14 20 -32 20 -41 0
-9 5 -16 10 -16 6 0 10 -6 10 -12 0 -7 11 -33 25 -58 13 -25 27 -53 31 -62 3
-10 11 -18 16 -18 5 0 7 -4 4 -9 -3 -5 1 -14 9 -21 8 -7 15 -19 15 -26 0 -8 5
-14 10 -14 6 0 10 -7 10 -15 0 -9 7 -18 15 -21 8 -4 15 -12 15 -20 0 -8 8 -22
18 -32 28 -31 52 -62 47 -62 -3 0 3 -8 12 -18 27 -29 53 -62 53 -68 0 -11 303
-304 315 -304 5 0 36 -24 60 -48 8 -6 18 -12 24 -12 6 0 16 -9 23 -20 7 -11
19 -20 26 -20 7 0 22 -9 34 -20 12 -11 34 -26 50 -32 15 -7 28 -16 28 -20 0
-5 7 -8 15 -8 8 0 15 -5 15 -11 0 -5 5 -7 10 -4 6 3 17 0 25 -7 31 -28 45 -39
45 -34 0 3 33 -11 73 -31 39 -20 78 -36 85 -36 6 0 12 -4 12 -9 0 -4 3 -7 8
-6 4 1 21 -4 37 -11 44 -17 60 -23 60 -20 0 1 10 -3 23 -10 13 -7 33 -15 45
-17 29 -7 39 -10 57 -17 8 -4 24 -8 35 -10 11 -1 26 -6 33 -10 6 -5 12 -6 12
-3 0 2 15 0 33 -5 17 -6 49 -12 70 -15 21 -3 49 -9 62 -14 16 -6 27 -6 31 1 4
8 9 8 13 1 3 -6 29 -13 56 -16 28 -3 62 -7 78 -9 15 -2 30 0 33 5 3 5 11 4 19
-2 15 -13 333 -11 341 2 3 4 11 5 19 1 9 -3 23 1 32 8 14 12 16 12 9 0 -7 -10
-3 -11 15 -5 13 4 42 8 64 10 22 1 47 4 55 7 8 3 58 15 110 27 52 12 112 28
133 36 20 7 37 12 37 9 0 -3 13 1 29 9 16 9 31 12 35 9 3 -4 6 -2 6 4 0 5 6
10 13 10 6 0 29 8 50 17 20 9 37 13 37 9 0 -5 4 -3 8 3 9 13 142 75 142 66 0
-4 5 0 10 8 5 8 13 16 17 16 24 4 53 17 53 24 0 4 18 15 40 25 22 10 40 21 40
25 0 5 11 11 25 14 14 4 25 11 25 16 0 6 6 10 13 10 7 0 27 13 45 30 18 16 35
29 38 29 6 0 66 47 104 83 16 14 31 23 35 20 3 -3 8 4 12 16 3 12 8 20 12 17
9 -5 172 161 226 230 21 28 46 56 54 62 8 7 12 13 8 13 -5 0 3 12 17 27 14 15
23 30 20 35 -3 4 2 8 11 8 9 0 14 4 11 9 -4 5 -2 11 3 13 9 3 90 136 128 211
12 23 25 47 30 52 4 6 8 15 9 20 0 6 12 36 27 67 14 32 29 69 33 83 3 14 11
25 17 25 6 0 8 3 5 6 -4 3 0 20 7 39 8 18 11 35 8 39 -4 3 -2 6 4 6 5 0 10 6
11 13 0 6 10 46 22 87 12 41 23 84 25 95 2 11 7 34 10 50 4 17 8 35 9 40 1 6
4 15 7 20 3 6 5 27 4 48 0 20 2 37 5 37 3 0 5 23 5 51 0 28 3 53 6 55 12 7 9
345 -2 367 -8 15 -8 18 1 12 9 -5 10 -1 5 14 -7 22 -15 71 -20 126 -1 17 -4
30 -5 30 -2 0 -6 22 -14 72 -3 21 -10 53 -15 71 -5 17 -8 32 -5 32 3 0 0 8 -5
19 -6 10 -13 33 -16 51 -3 18 -11 42 -17 54 -6 11 -11 23 -11 26 0 3 -3 15 -8
28 -5 13 -9 29 -9 35 0 7 -9 27 -20 45 -12 19 -16 31 -11 27 6 -3 4 7 -4 22
-29 55 -55 117 -55 130 0 8 -4 12 -9 9 -4 -3 -14 13 -21 34 -7 22 -17 40 -22
40 -4 0 -8 7 -8 15 0 8 -5 15 -11 15 -5 0 -8 4 -5 9 3 5 -1 14 -9 21 -8 7 -15
17 -15 21 0 9 -57 99 -80 127 -6 6 -9 12 -6 12 3 0 -5 10 -17 23 -12 13 -31
36 -42 52 -35 50 -68 86 -175 194 -112 113 -132 131 -225 201 -33 25 -61 48
-63 53 -2 4 -8 7 -13 7 -9 0 -65 36 -79 50 -8 8 -60 38 -110 62 -25 13 -49 29
-53 36 -5 7 -12 10 -17 7 -5 -3 -11 -1 -15 5 -4 6 -11 8 -16 5 -5 -4 -9 -1 -9
5 0 6 -4 8 -10 5 -5 -3 -10 -2 -10 4 0 5 -13 12 -30 16 -16 4 -32 11 -35 16
-4 5 -15 9 -26 9 -10 0 -19 4 -19 10 0 5 -3 9 -7 9 -5 -1 -10 0 -13 1 -3 1
-12 3 -20 5 -8 3 -53 18 -100 34 -46 16 -87 28 -89 25 -2 -2 -10 1 -17 7 -7 6
-26 12 -41 14 -15 2 -48 8 -73 14 -61 15 -120 25 -147 25 -13 1 -23 3 -23 6 0
6 -10 7 -232 15 -153 6 -191 5 -205 -6 -11 -10 -14 -10 -9 -1 7 12 -15 18 -26
6z"/>
</g>
</svg>
